<svg width="48" height="48" viewBox="0 0 48 48" fill="none" xmlns="http://www.w3.org/2000/svg">
<rect width="48" height="48" rx="24" fill="white"/>
<path d="M21.9363 14.5788C21.7015 14.3445 21.4114 14.1732 21.0929 14.0806C20.7743 13.988 20.4376 13.9772 20.1138 14.049C19.7899 14.1209 19.4894 14.2732 19.2399 14.4918C18.9905 14.7104 18.8001 14.9884 18.6863 15.3L12.1251 33.3475C12.0173 33.6451 11.9825 33.9642 12.0236 34.2781C12.0646 34.5919 12.1804 34.8914 12.3612 35.1512C12.5419 35.4111 12.7823 35.6238 13.0623 35.7715C13.3423 35.9191 13.6536 35.9975 13.9701 36C14.2031 35.9984 14.4341 35.9561 14.6526 35.875L32.6988 29.3125C33.0106 29.1989 33.2886 29.0086 33.5074 28.7592C33.7262 28.5098 33.8786 28.2093 33.9506 27.8855C34.0226 27.5616 34.0118 27.2248 33.9193 26.9062C33.8268 26.5876 33.6556 26.2975 33.4213 26.0625L21.9363 14.5788ZM16.1426 28.1413L18.5426 21.5425L26.4576 29.4575L19.8576 31.8575L16.1426 28.1413ZM28.0001 17C28.0189 16.324 28.1826 15.6598 28.4801 15.0525C29.1426 13.7287 30.3926 13 32.0001 13C32.8376 13 33.3751 12.7138 33.7063 12.0988C33.8808 11.7547 33.9808 11.3778 34.0001 10.9925C34.0011 10.7273 34.1074 10.4733 34.2956 10.2865C34.4839 10.0997 34.7386 9.99526 35.0038 9.99625C35.2691 9.99724 35.523 10.1036 35.7099 10.2918C35.8967 10.48 36.0011 10.7348 36.0001 11C36.0001 12.6075 34.9351 15 32.0001 15C31.1626 15 30.6251 15.2863 30.2938 15.9012C30.1194 16.2453 30.0193 16.6222 30.0001 17.0075C29.9996 17.1388 29.9732 17.2688 29.9225 17.3899C29.8718 17.511 29.7978 17.621 29.7045 17.7135C29.6113 17.806 29.5008 17.8793 29.3793 17.9291C29.2578 17.9789 29.1277 18.0042 28.9963 18.0037C28.865 18.0033 28.7351 17.9769 28.6139 17.9262C28.4928 17.8755 28.3828 17.8014 28.2903 17.7082C28.1978 17.615 28.1246 17.5045 28.0748 17.383C28.025 17.2615 27.9996 17.1313 28.0001 17ZM25.0001 13V10C25.0001 9.73478 25.1055 9.48043 25.293 9.29289C25.4805 9.10536 25.7349 9 26.0001 9C26.2653 9 26.5197 9.10536 26.7072 9.29289C26.8947 9.48043 27.0001 9.73478 27.0001 10V13C27.0001 13.2652 26.8947 13.5196 26.7072 13.7071C26.5197 13.8946 26.2653 14 26.0001 14C25.7349 14 25.4805 13.8946 25.293 13.7071C25.1055 13.5196 25.0001 13.2652 25.0001 13ZM37.7076 23.2925C37.8004 23.3854 37.874 23.4957 37.9242 23.6171C37.9745 23.7384 38.0003 23.8685 38.0002 23.9998C38.0002 24.1312 37.9742 24.2612 37.9239 24.3825C37.8736 24.5038 37.7999 24.614 37.707 24.7069C37.6141 24.7997 37.5038 24.8733 37.3824 24.9235C37.2611 24.9737 37.131 24.9995 36.9997 24.9995C36.8683 24.9994 36.7383 24.9735 36.617 24.9232C36.4956 24.8729 36.3854 24.7992 36.2926 24.7062L34.2926 22.7063C34.105 22.5186 33.9995 22.2641 33.9995 21.9987C33.9995 21.7334 34.105 21.4789 34.2926 21.2913C34.4802 21.1036 34.7347 20.9982 35.0001 20.9982C35.2655 20.9982 35.52 21.1036 35.7076 21.2913L37.7076 23.2925ZM38.3163 17.9487L35.3163 18.9487C35.0647 19.0326 34.7901 19.0131 34.5528 18.8945C34.3156 18.7759 34.1352 18.5679 34.0513 18.3162C33.9675 18.0646 33.987 17.79 34.1056 17.5528C34.2242 17.3155 34.4322 17.1351 34.6838 17.0513L37.6838 16.0513C37.9355 15.9674 38.2101 15.9869 38.4473 16.1055C38.6846 16.2241 38.865 16.4321 38.9488 16.6838C39.0327 16.9354 39.0132 17.21 38.8946 17.4472C38.776 17.6845 38.568 17.8649 38.3163 17.9487Z" fill="#006531"/>
</svg>
