<svg width="48" height="48" viewBox="0 0 48 48" fill="none" xmlns="http://www.w3.org/2000/svg">
<rect width="48" height="48" rx="24" fill="white"/>
<path d="M37 20C37.0005 19.907 36.9879 19.8144 36.9625 19.725L35.1688 13.45C35.0482 13.0336 34.7962 12.6675 34.4504 12.4061C34.1045 12.1448 33.6835 12.0023 33.25 12H14.75C14.3165 12.0023 13.8955 12.1448 13.5496 12.4061C13.2038 12.6675 12.9518 13.0336 12.8313 13.45L11.0388 19.725C11.0129 19.8144 10.9999 19.907 11 20V22C11 22.7762 11.1807 23.5418 11.5279 24.2361C11.875 24.9303 12.379 25.5343 13 26V34C13 34.5304 13.2107 35.0391 13.5858 35.4142C13.9609 35.7893 14.4696 36 15 36H33C33.5304 36 34.0391 35.7893 34.4142 35.4142C34.7893 35.0391 35 34.5304 35 34V26C35.621 25.5343 36.125 24.9303 36.4721 24.2361C36.8193 23.5418 37 22.7762 37 22V20ZM19 22C18.9998 22.5159 18.8666 23.023 18.6132 23.4724C18.3599 23.9217 17.9949 24.2982 17.5536 24.5653C17.1123 24.8325 16.6095 24.9813 16.0939 24.9975C15.5782 25.0136 15.0672 24.8965 14.61 24.6575C14.5404 24.6034 14.4639 24.5588 14.3825 24.525C13.9588 24.2538 13.6102 23.8804 13.3686 23.4392C13.127 22.9979 13.0003 22.503 13 22V21H19V22ZM27 22C27 22.7956 26.6839 23.5587 26.1213 24.1213C25.5587 24.6839 24.7957 25 24 25C23.2044 25 22.4413 24.6839 21.8787 24.1213C21.3161 23.5587 21 22.7956 21 22V21H27V22ZM35 22C34.9996 22.5032 34.8727 22.9981 34.6308 23.4394C34.389 23.8806 34.0401 24.2539 33.6162 24.525C33.5359 24.5589 33.4603 24.603 33.3913 24.6562C32.9341 24.8955 32.423 25.0129 31.9073 24.9969C31.3916 24.981 30.8887 24.8323 30.4473 24.5653C30.0058 24.2982 29.6407 23.9218 29.3872 23.4725C29.1336 23.0231 29.0003 22.516 29 22V21H35V22Z" fill="#006531"/>
</svg>
