<svg width="65" height="64" viewBox="0 0 65 64" fill="none" xmlns="http://www.w3.org/2000/svg">
<path d="M36.3335 37C36.3335 37.9889 36.0403 38.9556 35.4908 39.7779C34.9414 40.6001 34.1605 41.241 33.2469 41.6194C32.3333 41.9978 31.3279 42.0969 30.358 41.9039C29.3881 41.711 28.4972 41.2348 27.798 40.5355C27.0987 39.8363 26.6225 38.9454 26.4296 37.9755C26.2366 37.0055 26.3357 36.0002 26.7141 35.0866C27.0925 34.173 27.7334 33.3921 28.5556 32.8427C29.3779 32.2932 30.3446 32 31.3335 32C32.6596 32 33.9313 32.5268 34.869 33.4645C35.8067 34.4021 36.3335 35.6739 36.3335 37ZM54.3335 22V54C54.3335 55.0609 53.9121 56.0783 53.1619 56.8284C52.4118 57.5786 51.3944 58 50.3335 58H14.3335C13.2726 58 12.2552 57.5786 11.5051 56.8284C10.7549 56.0783 10.3335 55.0609 10.3335 54V10C10.3335 8.93913 10.7549 7.92172 11.5051 7.17157C12.2552 6.42143 13.2726 6 14.3335 6H38.3335C38.5962 5.99979 38.8564 6.05135 39.0992 6.15173C39.342 6.2521 39.5626 6.39933 39.7485 6.585L53.7485 20.585C53.9342 20.7709 54.0814 20.9915 54.1818 21.2343C54.2821 21.4771 54.3337 21.7373 54.3335 22ZM41.7485 44.585L38.9485 41.7875C40.1288 39.9119 40.5768 37.6672 40.2067 35.4822C39.8366 33.2973 38.6745 31.3253 36.9424 29.9429C35.2103 28.5606 33.0296 27.865 30.817 27.9888C28.6044 28.1127 26.5149 29.0474 24.9479 30.6144C23.3809 32.1814 22.4462 34.2709 22.3223 36.4835C22.1985 38.6961 22.8941 40.8768 24.2764 42.6089C25.6587 44.341 27.6308 45.5031 29.8157 45.8732C32.0007 46.2433 34.2454 45.7953 36.121 44.615L38.9185 47.415C39.1043 47.6008 39.3249 47.7482 39.5677 47.8488C39.8105 47.9494 40.0707 48.0011 40.3335 48.0011C40.5963 48.0011 40.8565 47.9494 41.0993 47.8488C41.3421 47.7482 41.5627 47.6008 41.7485 47.415C41.9343 47.2292 42.0817 47.0086 42.1823 46.7658C42.2828 46.523 42.3346 46.2628 42.3346 46C42.3346 45.7372 42.2828 45.477 42.1823 45.2342C42.0817 44.9914 41.9343 44.7708 41.7485 44.585ZM49.3335 22L38.3335 11V22H49.3335Z" fill="#006531"/>
</svg>
