<svg width="65" height="64" viewBox="0 0 65 64" fill="none" xmlns="http://www.w3.org/2000/svg">
<path d="M30.5462 7.105L32.5462 3.105C32.7835 2.63059 33.1996 2.26991 33.7029 2.1023C34.2062 1.93469 34.7555 1.97388 35.2299 2.21125C35.7043 2.44862 36.065 2.86472 36.2326 3.36802C36.4002 3.87132 36.361 4.42059 36.1237 4.895L34.1237 8.895C34.0061 9.1299 33.8435 9.33935 33.645 9.51139C33.4465 9.68344 33.2161 9.8147 32.9669 9.89769C32.7177 9.98069 32.4546 10.0138 32.1926 9.99509C31.9306 9.97639 31.6748 9.90628 31.4399 9.78875C31.205 9.67121 30.9956 9.50856 30.8235 9.31008C30.6515 9.11161 30.5202 8.88118 30.4372 8.63197C30.3542 8.38276 30.3211 8.11965 30.3398 7.85765C30.3585 7.59565 30.4286 7.3399 30.5462 7.105ZM4.33366 26H6.33366C6.86409 26 7.3728 25.7893 7.74787 25.4142C8.12295 25.0391 8.33366 24.5304 8.33366 24C8.33366 23.4696 8.12295 22.9609 7.74787 22.5858C7.3728 22.2107 6.86409 22 6.33366 22H4.33366C3.80323 22 3.29452 22.2107 2.91945 22.5858C2.54437 22.9609 2.33366 23.4696 2.33366 24C2.33366 24.5304 2.54437 25.0391 2.91945 25.4142C3.29452 25.7893 3.80323 26 4.33366 26ZM24.3337 8C24.8641 8 25.3728 7.78928 25.7479 7.41421C26.1229 7.03914 26.3337 6.53043 26.3337 6V4C26.3337 3.46956 26.1229 2.96086 25.7479 2.58578C25.3728 2.21071 24.8641 2 24.3337 2C23.8032 2 23.2945 2.21071 22.9194 2.58578C22.5444 2.96086 22.3337 3.46956 22.3337 4V6C22.3337 6.53043 22.5444 7.03914 22.9194 7.41421C23.2945 7.78928 23.8032 8 24.3337 8ZM7.43866 30.2125L3.43866 32.2125C2.96425 32.4499 2.60357 32.866 2.43596 33.3693C2.26835 33.8726 2.30754 34.4218 2.54491 34.8962C2.78228 35.3707 3.19838 35.7313 3.70168 35.8989C4.20498 36.0666 4.75425 36.0274 5.22866 35.79L9.22866 33.79C9.46356 33.6725 9.67301 33.5098 9.84506 33.3113C10.0171 33.1129 10.1484 32.8824 10.2314 32.6332C10.3144 32.384 10.3474 32.1209 10.3288 31.8589C10.3101 31.5969 10.2399 31.3411 10.1224 31.1062C10.0049 30.8713 9.84223 30.6619 9.64375 30.4898C9.44527 30.3178 9.21485 30.1865 8.96564 30.1035C8.71643 30.0206 8.45331 29.9875 8.19131 30.0062C7.92931 30.0248 7.67356 30.095 7.43866 30.2125ZM41.3512 34.1875L53.9362 28.7175C54.6735 28.3906 55.2947 27.8484 55.7184 27.1621C56.142 26.4758 56.3484 25.6775 56.3102 24.8718C56.2721 24.0662 55.9913 23.2909 55.5048 22.6477C55.0182 22.0045 54.3485 21.5234 53.5837 21.2675L13.5637 8.2C12.8634 7.97081 12.1133 7.94013 11.3966 8.11138C10.68 8.28262 10.0248 8.64909 9.50377 9.17011C8.98275 9.69112 8.61629 10.3463 8.44504 11.063C8.2738 11.7796 8.30447 12.5297 8.53366 13.23L21.6012 53.25C21.8474 54.0223 22.3251 54.7003 22.9694 55.1922C23.6138 55.6841 24.3937 55.9661 25.2037 56H25.3987C26.1755 56.0027 26.936 55.7768 27.5855 55.3505C28.2349 54.9242 28.7446 54.3163 29.0512 53.6025L34.5212 41.0175L48.3337 54.8275C48.7051 55.199 49.1461 55.4937 49.6315 55.6948C50.1168 55.8959 50.637 55.9994 51.1624 55.9994C51.6878 55.9994 52.208 55.8959 52.6934 55.6948C53.1787 55.4937 53.6197 55.199 53.9912 54.8275L55.1612 53.6575C55.5327 53.2861 55.8274 52.8451 56.0285 52.3597C56.2296 51.8743 56.3331 51.3541 56.3331 50.8287C56.3331 50.3034 56.2296 49.7832 56.0285 49.2978C55.8274 48.8124 55.5327 48.3714 55.1612 48L41.3512 34.1875Z" fill="#006531"/>
</svg>
