<svg width="65" height="64" viewBox="0 0 65 64" fill="none" xmlns="http://www.w3.org/2000/svg">
<path d="M52.6665 8H12.6665C11.6056 8 10.5882 8.42143 9.83808 9.17157C9.08793 9.92172 8.6665 10.9391 8.6665 12V52C8.6665 53.0609 9.08793 54.0783 9.83808 54.8284C10.5882 55.5786 11.6056 56 12.6665 56H52.6665C53.7274 56 54.7448 55.5786 55.4949 54.8284C56.2451 54.0783 56.6665 53.0609 56.6665 52V12C56.6665 10.9391 56.2451 9.92172 55.4949 9.17157C54.7448 8.42143 53.7274 8 52.6665 8ZM36.6665 30C37.1969 30 37.7056 30.2107 38.0807 30.5858C38.4558 30.9609 38.6665 31.4696 38.6665 32C38.6665 32.5304 38.4558 33.0391 38.0807 33.4142C37.7056 33.7893 37.1969 34 36.6665 34H34.6665V40C34.6665 41.0609 35.0879 42.0783 35.8381 42.8284C36.5882 43.5786 37.6056 44 38.6665 44H40.6665C41.1969 44 41.7056 44.2107 42.0807 44.5858C42.4558 44.9609 42.6665 45.4696 42.6665 46C42.6665 46.5304 42.4558 47.0391 42.0807 47.4142C41.7056 47.7893 41.1969 48 40.6665 48H38.6665C37.5306 48.0002 36.4078 47.7578 35.373 47.2892C34.3383 46.8205 33.4156 46.1364 32.6665 45.2825C31.9174 46.1364 30.9947 46.8205 29.96 47.2892C28.9252 47.7578 27.8024 48.0002 26.6665 48H24.6665C24.1361 48 23.6274 47.7893 23.2523 47.4142C22.8772 47.0391 22.6665 46.5304 22.6665 46C22.6665 45.4696 22.8772 44.9609 23.2523 44.5858C23.6274 44.2107 24.1361 44 24.6665 44H26.6665C27.7274 44 28.7448 43.5786 29.4949 42.8284C30.2451 42.0783 30.6665 41.0609 30.6665 40V34H28.6665C28.1361 34 27.6274 33.7893 27.2523 33.4142C26.8772 33.0391 26.6665 32.5304 26.6665 32C26.6665 31.4696 26.8772 30.9609 27.2523 30.5858C27.6274 30.2107 28.1361 30 28.6665 30H30.6665V24C30.6665 22.9391 30.2451 21.9217 29.4949 21.1716C28.7448 20.4214 27.7274 20 26.6665 20H24.6665C24.1361 20 23.6274 19.7893 23.2523 19.4142C22.8772 19.0391 22.6665 18.5304 22.6665 18C22.6665 17.4696 22.8772 16.9609 23.2523 16.5858C23.6274 16.2107 24.1361 16 24.6665 16H26.6665C27.8024 15.9998 28.9252 16.2422 29.96 16.7108C30.9947 17.1795 31.9174 17.8636 32.6665 18.7175C33.4156 17.8636 34.3383 17.1795 35.373 16.7108C36.4078 16.2422 37.5306 15.9998 38.6665 16H40.6665C41.1969 16 41.7056 16.2107 42.0807 16.5858C42.4558 16.9609 42.6665 17.4696 42.6665 18C42.6665 18.5304 42.4558 19.0391 42.0807 19.4142C41.7056 19.7893 41.1969 20 40.6665 20H38.6665C37.6056 20 36.5882 20.4214 35.8381 21.1716C35.0879 21.9217 34.6665 22.9391 34.6665 24V30H36.6665Z" fill="#006531"/>
</svg>
