<svg width="64" height="64" viewBox="0 0 64 64" fill="none" xmlns="http://www.w3.org/2000/svg">
<path d="M32.0225 14.345C32.1346 12.7929 32.6471 11.2964 33.5102 10.0015C34.3733 8.70662 35.5574 7.65766 36.9468 6.957C38.3363 6.25634 39.8837 5.92792 41.438 6.00381C42.9923 6.0797 44.5004 6.5573 45.815 7.38999C45.9653 7.48833 46.0863 7.62533 46.1654 7.78661C46.2445 7.94789 46.2786 8.12749 46.2643 8.30653C46.25 8.48557 46.1877 8.65745 46.084 8.80411C45.9803 8.95077 45.839 9.06679 45.675 9.13999C43.3897 10.1682 41.4498 11.8342 40.0884 13.9381C38.7269 16.0419 38.0017 18.4941 38 21C38 21.2925 38 21.585 38.03 21.8725C38.0438 22.0542 38.0076 22.2362 37.9255 22.3989C37.8433 22.5616 37.7183 22.6987 37.5639 22.7955C37.4095 22.8923 37.2315 22.945 37.0493 22.948C36.8671 22.951 36.6875 22.9041 36.53 22.8125C35.0567 21.9697 33.8517 20.7276 33.0541 19.2293C32.2566 17.731 31.8989 16.0378 32.0225 14.345ZM60 40.1525C60.0036 41.2953 59.687 42.4163 59.086 43.3884C58.4851 44.3605 57.6239 45.1448 56.6 45.6525L56.49 45.7025L46.7825 49.8375C46.6866 49.8797 46.587 49.9132 46.485 49.9375L30.485 53.9375C30.3265 53.9783 30.1636 53.9992 30 54H4C2.93913 54 1.92172 53.5786 1.17157 52.8284C0.421427 52.0783 0 51.0609 0 50V40C0 38.9391 0.421427 37.9217 1.17157 37.1716C1.92172 36.4214 2.93913 36 4 36H11.1725L16.8275 30.3425C17.569 29.5977 18.4508 29.0071 19.4218 28.6051C20.3929 28.203 21.434 27.9974 22.485 28H35C36.0564 27.9999 37.0992 28.2389 38.0501 28.6991C39.001 29.1593 39.8355 29.8288 40.4909 30.6573C41.1462 31.4859 41.6056 32.452 41.8345 33.4834C42.0634 34.5147 42.0559 35.5845 41.8125 36.6125L52.2725 34.2075C53.1831 33.9663 54.1369 33.9375 55.0604 34.1232C55.9839 34.3089 56.8524 34.7042 57.5991 35.2786C58.3457 35.853 58.9504 36.5911 59.3667 37.4362C59.7829 38.2812 59.9996 39.2105 60 40.1525ZM56 40.1525C55.9997 39.8218 55.9232 39.4956 55.7764 39.1993C55.6297 38.9029 55.4166 38.6444 55.1538 38.4437C54.891 38.243 54.5855 38.1056 54.2609 38.0421C53.9364 37.9786 53.6016 37.9907 53.2825 38.0775L53.205 38.0975L36.455 41.95C36.3081 41.9828 36.158 41.9996 36.0075 42H28C27.4696 42 26.9609 41.7893 26.5858 41.4142C26.2107 41.0391 26 40.5304 26 40C26 39.4696 26.2107 38.9608 26.5858 38.5858C26.9609 38.2107 27.4696 38 28 38H35C35.7957 38 36.5587 37.6839 37.1213 37.1213C37.6839 36.5587 38 35.7956 38 35C38 34.2043 37.6839 33.4413 37.1213 32.8787C36.5587 32.3161 35.7957 32 35 32H22.485C21.9595 31.9983 21.4389 32.1011 20.9535 32.3024C20.4681 32.5037 20.0276 32.7994 19.6575 33.1725L14 38.8275V50H29.75L45.3575 46.0975L54.8575 42.0525C55.2033 41.8703 55.4926 41.5969 55.694 41.262C55.8954 40.927 56.0012 40.5433 56 40.1525ZM42 21C42 22.78 42.5278 24.5201 43.5168 26.0001C44.5057 27.4802 45.9113 28.6337 47.5559 29.3149C49.2004 29.9961 51.01 30.1743 52.7558 29.8271C54.5016 29.4798 56.1053 28.6226 57.364 27.3639C58.6226 26.1053 59.4798 24.5016 59.8271 22.7558C60.1743 21.01 59.9961 19.2004 59.3149 17.5558C58.6337 15.9113 57.4802 14.5057 56.0001 13.5168C54.5201 12.5278 52.78 12 51 12C48.6131 12 46.3239 12.9482 44.636 14.636C42.9482 16.3239 42 18.613 42 21Z" fill="#006531"/>
</svg>
