<svg width="64" height="64" viewBox="0 0 64 64" fill="none" xmlns="http://www.w3.org/2000/svg">
<path d="M56 18H52V16C52 14.4087 51.3679 12.8826 50.2426 11.7574C49.1174 10.6321 47.5913 10 46 10H10C8.4087 10 6.88258 10.6321 5.75736 11.7574C4.63214 12.8826 4 14.4087 4 16V40C4 41.5913 4.63214 43.1174 5.75736 44.2426C6.88258 45.3679 8.4087 46 10 46H38V48C38 49.5913 38.6321 51.1174 39.7574 52.2426C40.8826 53.3679 42.4087 54 44 54H56C57.5913 54 59.1174 53.3679 60.2426 52.2426C61.3679 51.1174 62 49.5913 62 48V24C62 22.4087 61.3679 20.8826 60.2426 19.7574C59.1174 18.6321 57.5913 18 56 18ZM58 48C58 48.5304 57.7893 49.0391 57.4142 49.4142C57.0391 49.7893 56.5304 50 56 50H44C43.4696 50 42.9609 49.7893 42.5858 49.4142C42.2107 49.0391 42 48.5304 42 48V24C42 23.4696 42.2107 22.9609 42.5858 22.5858C42.9609 22.2107 43.4696 22 44 22H56C56.5304 22 57.0391 22.2107 57.4142 22.5858C57.7893 22.9609 58 23.4696 58 24V48ZM34 52C34 52.5304 33.7893 53.0391 33.4142 53.4142C33.0391 53.7893 32.5304 54 32 54H22C21.4696 54 20.9609 53.7893 20.5858 53.4142C20.2107 53.0391 20 52.5304 20 52C20 51.4696 20.2107 50.9609 20.5858 50.5858C20.9609 50.2107 21.4696 50 22 50H32C32.5304 50 33.0391 50.2107 33.4142 50.5858C33.7893 50.9609 34 51.4696 34 52ZM54 28C54 28.5304 53.7893 29.0391 53.4142 29.4142C53.0391 29.7893 52.5304 30 52 30H48C47.4696 30 46.9609 29.7893 46.5858 29.4142C46.2107 29.0391 46 28.5304 46 28C46 27.4696 46.2107 26.9609 46.5858 26.5858C46.9609 26.2107 47.4696 26 48 26H52C52.5304 26 53.0391 26.2107 53.4142 26.5858C53.7893 26.9609 54 27.4696 54 28Z" fill="#006531"/>
</svg>
