<svg width="65" height="64" viewBox="0 0 65 64" fill="none" xmlns="http://www.w3.org/2000/svg">
<path d="M19.2515 21.415C18.8762 21.0397 18.6654 20.5307 18.6654 20C18.6654 19.4693 18.8762 18.9603 19.2515 18.585C19.6268 18.2097 20.1358 17.9989 20.6665 17.9989C21.1972 17.9989 21.7062 18.2097 22.0815 18.585L30.6665 27.1725V6C30.6665 5.46957 30.8772 4.96086 31.2523 4.58579C31.6274 4.21071 32.1361 4 32.6665 4C33.1969 4 33.7056 4.21071 34.0807 4.58579C34.4558 4.96086 34.6665 5.46957 34.6665 6V27.1725L43.2515 18.585C43.6268 18.2097 44.1358 17.9989 44.6665 17.9989C45.1972 17.9989 45.7062 18.2097 46.0815 18.585C46.4568 18.9603 46.6676 19.4693 46.6676 20C46.6676 20.5307 46.4568 21.0397 46.0815 21.415L34.0815 33.415C33.8958 33.601 33.6752 33.7485 33.4324 33.8491C33.1896 33.9498 32.9293 34.0016 32.6665 34.0016C32.4037 34.0016 32.1434 33.9498 31.9006 33.8491C31.6578 33.7485 31.4372 33.601 31.2515 33.415L19.2515 21.415ZM60.6665 34V50C60.6665 51.0609 60.2451 52.0783 59.4949 52.8284C58.7448 53.5786 57.7274 54 56.6665 54H8.6665C7.60564 54 6.58822 53.5786 5.83808 52.8284C5.08793 52.0783 4.6665 51.0609 4.6665 50V34C4.6665 32.9391 5.08793 31.9217 5.83808 31.1716C6.58822 30.4214 7.60564 30 8.6665 30H21.7665C21.8979 29.9999 22.028 30.0257 22.1494 30.0759C22.2707 30.1261 22.3811 30.1997 22.474 30.2925L28.4165 36.25C28.9739 36.8094 29.6363 37.2532 30.3656 37.556C31.0949 37.8588 31.8768 38.0147 32.6665 38.0147C33.4562 38.0147 34.2381 37.8588 34.9674 37.556C35.6967 37.2532 36.3591 36.8094 36.9165 36.25L42.8665 30.3C43.0511 30.1116 43.3027 30.0038 43.5665 30H56.6665C57.7274 30 58.7448 30.4214 59.4949 31.1716C60.2451 31.9217 60.6665 32.9391 60.6665 34ZM50.6665 42C50.6665 41.4067 50.4906 40.8266 50.1609 40.3333C49.8313 39.8399 49.3627 39.4554 48.8146 39.2284C48.2664 39.0013 47.6632 38.9419 47.0812 39.0576C46.4993 39.1734 45.9647 39.4591 45.5452 39.8787C45.1256 40.2982 44.8399 40.8328 44.7241 41.4147C44.6084 41.9967 44.6678 42.5999 44.8949 43.148C45.1219 43.6962 45.5064 44.1648 45.9998 44.4944C46.4931 44.8241 47.0732 45 47.6665 45C48.4622 45 49.2252 44.6839 49.7878 44.1213C50.3504 43.5587 50.6665 42.7957 50.6665 42Z" fill="#006531"/>
</svg>
