<svg width="32" height="33" viewBox="0 0 32 33" fill="none" xmlns="http://www.w3.org/2000/svg">
<path d="M26.7075 10.7925L19.7075 3.7925C19.6146 3.69967 19.5042 3.62605 19.3829 3.57586C19.2615 3.52568 19.1314 3.4999 19 3.5H7C6.46957 3.5 5.96086 3.71071 5.58579 4.08579C5.21071 4.46086 5 4.96957 5 5.5V27.5C5 28.0304 5.21071 28.5391 5.58579 28.9142C5.96086 29.2893 6.46957 29.5 7 29.5H25C25.5304 29.5 26.0391 29.2893 26.4142 28.9142C26.7893 28.5391 27 28.0304 27 27.5V11.5C27.0001 11.3686 26.9743 11.2385 26.9241 11.1172C26.8739 10.9958 26.8003 10.8854 26.7075 10.7925ZM19 20.5H17V22.5C17 22.7652 16.8946 23.0196 16.7071 23.2071C16.5196 23.3946 16.2652 23.5 16 23.5C15.7348 23.5 15.4804 23.3946 15.2929 23.2071C15.1054 23.0196 15 22.7652 15 22.5V20.5H13C12.7348 20.5 12.4804 20.3946 12.2929 20.2071C12.1054 20.0196 12 19.7652 12 19.5C12 19.2348 12.1054 18.9804 12.2929 18.7929C12.4804 18.6054 12.7348 18.5 13 18.5H15V16.5C15 16.2348 15.1054 15.9804 15.2929 15.7929C15.4804 15.6054 15.7348 15.5 16 15.5C16.2652 15.5 16.5196 15.6054 16.7071 15.7929C16.8946 15.9804 17 16.2348 17 16.5V18.5H19C19.2652 18.5 19.5196 18.6054 19.7071 18.7929C19.8946 18.9804 20 19.2348 20 19.5C20 19.7652 19.8946 20.0196 19.7071 20.2071C19.5196 20.3946 19.2652 20.5 19 20.5ZM19 11.5V5.91375L24.5863 11.5H19Z" fill="#01903C"/>
</svg>
