<svg width="40" height="40" viewBox="0 0 40 40" fill="none" xmlns="http://www.w3.org/2000/svg">
<path fill-rule="evenodd" clip-rule="evenodd" d="M0.5 20C0.5 9.23 9.23 0.5 20 0.5C30.77 0.5 39.5 9.23 39.5 20C39.5 30.77 30.77 39.5 20 39.5C9.23 39.5 0.5 30.77 0.5 20ZM17.912 17.116C20.204 15.97 22.786 18.042 22.164 20.528L20.746 26.2L20.83 26.16C21.1824 26.0051 21.5809 25.9916 21.9431 26.1223C22.3052 26.253 22.6031 26.518 22.7753 26.8623C22.9475 27.2067 22.9807 27.604 22.868 27.9722C22.7553 28.3403 22.5054 28.651 22.17 28.84L22.09 28.884C19.796 30.03 17.214 27.958 17.836 25.472L19.256 19.8L19.172 19.84C18.9951 19.9383 18.8001 19.9998 18.5988 20.0208C18.3974 20.0418 18.1939 20.0218 18.0006 19.962C17.8072 19.9023 17.6279 19.804 17.4735 19.6731C17.319 19.5423 17.1927 19.3815 17.1021 19.2005C17.0115 19.0195 16.9584 18.822 16.9461 18.62C16.9338 18.418 16.9625 18.2155 17.0305 18.0249C17.0985 17.8342 17.2044 17.6593 17.3418 17.5107C17.4792 17.3621 17.6453 17.2428 17.83 17.16L17.912 17.116ZM20 14C20.3978 14 20.7794 13.842 21.0607 13.5607C21.342 13.2794 21.5 12.8978 21.5 12.5C21.5 12.1022 21.342 11.7206 21.0607 11.4393C20.7794 11.158 20.3978 11 20 11C19.6022 11 19.2206 11.158 18.9393 11.4393C18.658 11.7206 18.5 12.1022 18.5 12.5C18.5 12.8978 18.658 13.2794 18.9393 13.5607C19.2206 13.842 19.6022 14 20 14Z" fill="#EC2100"/>
</svg>
