<svg width="32" height="32" viewBox="0 0 32 32" fill="none" xmlns="http://www.w3.org/2000/svg">
<path d="M4 3.5C4 2.67157 4.67157 2 5.5 2H19L28 11V28.5C28 29.3284 27.3284 30 26.5 30H5.5C4.67157 30 4 29.3284 4 28.5V3.5Z" fill="url(#paint0_linear_183_35555)"/>
<path d="M19 9.5V2L28 11H20.5C19.6716 11 19 10.3284 19 9.5Z" fill="#255EBA"/>
<path d="M10.6273 22.084C10.2959 22.084 9.99025 22.0233 9.71025 21.902C9.43492 21.776 9.20858 21.5987 9.03125 21.37L9.66125 20.614C9.79658 20.7913 9.93892 20.9267 10.0883 21.02C10.2376 21.1087 10.3986 21.153 10.5713 21.153C11.0333 21.153 11.2643 20.8823 11.2643 20.341V18.01H9.54225V17.1H12.3913V20.278C12.3913 20.8847 12.2419 21.3373 11.9432 21.636C11.6446 21.9347 11.2059 22.084 10.6273 22.084Z" fill="white"/>
<path d="M13.7114 22V17.1H15.8324C16.271 17.1 16.649 17.1723 16.9664 17.317C17.2837 17.457 17.5287 17.66 17.7014 17.926C17.874 18.192 17.9604 18.5093 17.9604 18.878C17.9604 19.242 17.874 19.557 17.7014 19.823C17.5287 20.089 17.2837 20.2943 16.9664 20.439C16.649 20.579 16.271 20.649 15.8324 20.649H14.3414L14.8454 20.138V22H13.7114ZM14.8454 20.264L14.3414 19.725H15.7694C16.1194 19.725 16.3807 19.6503 16.5534 19.501C16.726 19.3517 16.8124 19.144 16.8124 18.878C16.8124 18.6073 16.726 18.3973 16.5534 18.248C16.3807 18.0987 16.1194 18.024 15.7694 18.024H14.3414L14.8454 17.485V20.264Z" fill="white"/>
<path d="M21.4043 22.084C21.017 22.084 20.66 22.0233 20.3333 21.902C20.0113 21.776 19.729 21.5987 19.4863 21.37C19.2483 21.1413 19.0616 20.873 18.9263 20.565C18.7956 20.257 18.7303 19.9187 18.7303 19.55C18.7303 19.1813 18.7956 18.843 18.9263 18.535C19.0616 18.227 19.2506 17.9587 19.4933 17.73C19.736 17.5013 20.0206 17.3263 20.3473 17.205C20.674 17.079 21.0333 17.016 21.4253 17.016C21.8593 17.016 22.249 17.0883 22.5943 17.233C22.9443 17.3777 23.2383 17.5877 23.4763 17.863L22.7483 18.535C22.571 18.3483 22.3773 18.2107 22.1673 18.122C21.9573 18.0287 21.7286 17.982 21.4813 17.982C21.2433 17.982 21.0263 18.0193 20.8303 18.094C20.6343 18.1687 20.464 18.276 20.3193 18.416C20.1793 18.556 20.0696 18.7217 19.9903 18.913C19.9156 19.1043 19.8783 19.3167 19.8783 19.55C19.8783 19.7787 19.9156 19.9887 19.9903 20.18C20.0696 20.3713 20.1793 20.5393 20.3193 20.684C20.464 20.824 20.632 20.9313 20.8233 21.006C21.0193 21.0807 21.234 21.118 21.4673 21.118C21.6913 21.118 21.9083 21.083 22.1183 21.013C22.333 20.9383 22.5406 20.8147 22.7413 20.642L23.3853 21.461C23.1193 21.6617 22.809 21.8157 22.4543 21.923C22.1043 22.0303 21.7543 22.084 21.4043 22.084ZM22.3493 21.314V19.473H23.3853V21.461L22.3493 21.314Z" fill="white"/>
<defs>
<linearGradient id="paint0_linear_183_35555" x1="16" y1="2" x2="16" y2="30" gradientUnits="userSpaceOnUse">
<stop stop-color="#69A1FA"/>
<stop offset="1" stop-color="#4B86E4"/>
</linearGradient>
</defs>
</svg>
