<svg width="40" height="40" viewBox="0 0 40 40" fill="none" xmlns="http://www.w3.org/2000/svg">
<path fill-rule="evenodd" clip-rule="evenodd" d="M19.667 0.5C8.89699 0.5 0.166992 9.23 0.166992 20C0.166992 30.77 8.89699 39.5 19.667 39.5C30.437 39.5 39.167 30.77 39.167 20C39.167 9.23 30.437 0.5 19.667 0.5ZM21.167 8C21.167 7.60218 21.009 7.22064 20.7277 6.93934C20.4463 6.65804 20.0648 6.5 19.667 6.5C19.2692 6.5 18.8876 6.65804 18.6063 6.93934C18.325 7.22064 18.167 7.60218 18.167 8V20C18.167 20.828 18.839 21.5 19.667 21.5H28.667C29.0648 21.5 29.4463 21.342 29.7277 21.0607C30.009 20.7794 30.167 20.3978 30.167 20C30.167 19.6022 30.009 19.2206 29.7277 18.9393C29.4463 18.658 29.0648 18.5 28.667 18.5H21.167V8Z" fill="#EAB308"/>
</svg>
