<svg width="49" height="48" viewBox="0 0 49 48" fill="none" xmlns="http://www.w3.org/2000/svg">
<path fill-rule="evenodd" clip-rule="evenodd" d="M4.83398 24C4.83398 13.23 13.564 4.5 24.334 4.5C35.104 4.5 43.834 13.23 43.834 24C43.834 34.77 35.104 43.5 24.334 43.5C13.564 43.5 4.83398 34.77 4.83398 24ZM31.554 20.372C31.674 20.2121 31.7608 20.0298 31.8094 19.8359C31.8579 19.642 31.8672 19.4403 31.8367 19.2427C31.8062 19.0451 31.7365 18.8556 31.6317 18.6854C31.5269 18.5151 31.3891 18.3676 31.2265 18.2513C31.0639 18.1351 30.8796 18.0525 30.6846 18.0085C30.4896 17.9644 30.2878 17.9598 30.0909 17.9949C29.8941 18.03 29.7063 18.1041 29.5385 18.2128C29.3708 18.3215 29.2264 18.4627 29.114 18.628L22.642 27.688L19.394 24.44C19.1096 24.175 18.7335 24.0308 18.3449 24.0376C17.9563 24.0445 17.5856 24.2019 17.3107 24.4768C17.0359 24.7516 16.8785 25.1224 16.8716 25.511C16.8648 25.8996 17.009 26.2757 17.274 26.56L21.774 31.06C21.928 31.2139 22.1136 31.3324 22.318 31.4073C22.5223 31.4822 22.7406 31.5118 22.9575 31.4939C23.1744 31.476 23.3849 31.4111 23.5742 31.3037C23.7636 31.1963 23.9273 31.049 24.054 30.872L31.554 20.372Z" fill="#01903C"/>
</svg>
