<svg width="32" height="33" viewBox="0 0 32 33" fill="none" xmlns="http://www.w3.org/2000/svg">
<path fill-rule="evenodd" clip-rule="evenodd" d="M3 16.5C3 9.32 8.82 3.5 16 3.5C23.18 3.5 29 9.32 29 16.5C29 23.68 23.18 29.5 16 29.5C8.82 29.5 3 23.68 3 16.5ZM14.608 14.5773C16.136 13.8133 17.8573 15.1947 17.4427 16.852L16.4973 20.6333L16.5533 20.6067C16.7883 20.5034 17.054 20.4944 17.2954 20.5815C17.5368 20.6687 17.7354 20.8453 17.8502 21.0749C17.965 21.3045 17.9871 21.5694 17.912 21.8148C17.8369 22.0602 17.6703 22.2673 17.4467 22.3933L17.3933 22.4227C15.864 23.1867 14.1427 21.8053 14.5573 20.148L15.504 16.3667L15.448 16.3933C15.3301 16.4589 15.2001 16.4999 15.0658 16.5139C14.9316 16.5278 14.796 16.5145 14.667 16.4747C14.5381 16.4349 14.4186 16.3693 14.3156 16.2821C14.2127 16.1948 14.1285 16.0877 14.0681 15.967C14.0076 15.8463 13.9723 15.7147 13.9641 15.58C13.9559 15.4453 13.975 15.3104 14.0204 15.1833C14.0657 15.0562 14.1363 14.9396 14.2279 14.8405C14.3195 14.7414 14.4302 14.6618 14.5533 14.6067L14.608 14.5773ZM16 12.5C16.2652 12.5 16.5196 12.3946 16.7071 12.2071C16.8946 12.0196 17 11.7652 17 11.5C17 11.2348 16.8946 10.9804 16.7071 10.7929C16.5196 10.6054 16.2652 10.5 16 10.5C15.7348 10.5 15.4804 10.6054 15.2929 10.7929C15.1054 10.9804 15 11.2348 15 11.5C15 11.7652 15.1054 12.0196 15.2929 12.2071C15.4804 12.3946 15.7348 12.5 16 12.5Z" fill="#EC2100"/>
</svg>
