<svg width="24" height="24" viewBox="0 0 24 24" fill="none" xmlns="http://www.w3.org/2000/svg">
<path d="M6.0098 13.8561C6.01234 13.9069 6.00452 13.9577 5.98682 14.0054C5.96911 14.0531 5.94189 14.0967 5.90682 14.1335C5.87174 14.1704 5.82953 14.1997 5.78277 14.2197C5.736 14.2397 5.68566 14.25 5.6348 14.2499H1.49855C1.32927 14.2502 1.16488 14.1931 1.03211 14.0881C0.89935 13.9831 0.806018 13.8363 0.767295 13.6715C0.743184 13.5587 0.744295 13.4419 0.770551 13.3296C0.796806 13.2173 0.847556 13.1122 0.91917 13.0218C1.58087 12.1443 2.45882 11.4533 3.4673 11.0165C3.02454 10.6128 2.68496 10.1089 2.47699 9.54696C2.26903 8.98505 2.19873 8.38149 2.272 7.78682C2.34526 7.19216 2.55995 6.6237 2.89808 6.12907C3.23622 5.63444 3.68795 5.22803 4.21545 4.94388C4.74295 4.65973 5.33085 4.50612 5.92993 4.49591C6.529 4.48569 7.1218 4.61918 7.65868 4.88518C8.19556 5.15118 8.66089 5.54195 9.01569 6.02477C9.37048 6.50758 9.60443 7.06839 9.69792 7.66021C9.70999 7.7398 9.69574 7.82115 9.65732 7.89189C9.61891 7.96262 9.55843 8.01888 9.48511 8.05209C8.44485 8.533 7.56386 9.30144 6.94608 10.2667C6.32831 11.232 5.99953 12.3539 5.99855 13.4999C5.99855 13.6199 5.99855 13.738 6.0098 13.8561ZM23.0723 13.0208C22.4121 12.1443 21.5362 11.4538 20.5298 11.0165C20.9725 10.6128 21.3121 10.1089 21.5201 9.54696C21.7281 8.98505 21.7984 8.38149 21.7251 7.78682C21.6518 7.19216 21.4371 6.6237 21.099 6.12907C20.7609 5.63444 20.3091 5.22803 19.7816 4.94388C19.2541 4.65973 18.6662 4.50612 18.0672 4.49591C17.4681 4.48569 16.8753 4.61918 16.3384 4.88518C15.8015 5.15118 15.3362 5.54195 14.9814 6.02477C14.6266 6.50758 14.3927 7.06839 14.2992 7.66021C14.2871 7.7398 14.3014 7.82115 14.3398 7.89189C14.3782 7.96262 14.4387 8.01888 14.512 8.05209C15.5522 8.533 16.4332 9.30144 17.051 10.2667C17.6688 11.232 17.9976 12.3539 17.9985 13.4999C17.9985 13.6199 17.9985 13.738 17.9873 13.8561C17.9848 13.9069 17.9926 13.9577 18.0103 14.0054C18.028 14.0531 18.0552 14.0967 18.0903 14.1335C18.1254 14.1704 18.1676 14.1997 18.2143 14.2197C18.2611 14.2397 18.3114 14.25 18.3623 14.2499H22.4985C22.6678 14.2502 22.8322 14.1931 22.965 14.0881C23.0977 13.9831 23.1911 13.8363 23.2298 13.6715C23.2541 13.5585 23.2529 13.4415 23.2265 13.329C23.2001 13.2165 23.149 13.1112 23.077 13.0208H23.0723ZM14.7285 17.069C15.4753 16.4971 16.0241 15.7055 16.2978 14.8056C16.5714 13.9057 16.5562 12.9427 16.2543 12.0518C15.9524 11.161 15.3789 10.3872 14.6145 9.83912C13.85 9.29106 12.9331 8.99632 11.9925 8.99632C11.0518 8.99632 10.1349 9.29106 9.37045 9.83912C8.60601 10.3872 8.03252 11.161 7.73059 12.0518C7.42866 12.9427 7.41346 13.9057 7.68713 14.8056C7.96081 15.7055 8.50959 16.4971 9.25636 17.069C7.93124 17.6431 6.82473 18.6264 6.09886 19.8749C6.03302 19.9889 5.99837 20.1183 5.99838 20.2499C5.99838 20.3816 6.03305 20.511 6.0989 20.625C6.16475 20.739 6.25945 20.8337 6.37349 20.8995C6.48752 20.9653 6.61688 20.9999 6.74855 20.9999H17.2485C17.3802 20.9999 17.5096 20.9653 17.6236 20.8995C17.7376 20.8337 17.8323 20.739 17.8982 20.625C17.964 20.511 17.9987 20.3816 17.9987 20.2499C17.9987 20.1183 17.9641 19.9889 17.8982 19.8749C17.1708 18.6256 16.0622 17.6422 14.7351 17.069H14.7285Z" fill="#BEC2C5"/>
</svg>
