<svg width="41" height="36" viewBox="0 0 41 36" fill="none" xmlns="http://www.w3.org/2000/svg">
<rect x="0.390137" y="0.5" width="35" height="35" rx="17.5" fill="white"/>
<path d="M22.6138 11.3125C23.3755 11.3125 24.02 11.957 24.02 12.7188V23.0312C24.02 23.8223 23.3755 24.4375 22.6138 24.4375H18.5708V19.9844H20.27L20.5923 17.875H18.5708V16.5273C18.5708 15.9414 18.8638 15.3848 19.772 15.3848H20.6802V13.5977C20.6802 13.5977 19.8599 13.4512 19.0396 13.4512C17.3989 13.4512 16.3149 14.4766 16.3149 16.293V17.875H14.4692V19.9844H16.3149V24.4375H12.3013C11.5103 24.4375 10.895 23.8223 10.895 23.0312V12.7188C10.895 11.957 11.5103 11.3125 12.3013 11.3125H22.6138Z" fill="#006531"/>
</svg>
