<svg width="36" height="36" viewBox="0 0 36 36" fill="none" xmlns="http://www.w3.org/2000/svg">
<rect x="0.390137" y="0.5" width="35" height="35" rx="17.5" fill="white"/>
<path d="M17.4575 14.5059C19.3032 14.5059 20.8267 16.0293 20.8267 17.875C20.8267 19.75 19.3032 21.2441 17.4575 21.2441C15.5825 21.2441 14.0884 19.75 14.0884 17.875C14.0884 16.0293 15.5825 14.5059 17.4575 14.5059ZM17.4575 20.0723C18.6587 20.0723 19.6255 19.1055 19.6255 17.875C19.6255 16.6738 18.6587 15.707 17.4575 15.707C16.2271 15.707 15.2603 16.6738 15.2603 17.875C15.2603 19.1055 16.2563 20.0723 17.4575 20.0723ZM21.7349 14.3887C21.7349 14.8281 21.3833 15.1797 20.9438 15.1797C20.5044 15.1797 20.1528 14.8281 20.1528 14.3887C20.1528 13.9492 20.5044 13.5977 20.9438 13.5977C21.3833 13.5977 21.7349 13.9492 21.7349 14.3887ZM23.9614 15.1797C24.02 16.2637 24.02 19.5156 23.9614 20.5996C23.9028 21.6543 23.6685 22.5625 22.9067 23.3535C22.145 24.1152 21.2075 24.3496 20.1528 24.4082C19.0688 24.4668 15.8169 24.4668 14.7329 24.4082C13.6782 24.3496 12.77 24.1152 11.979 23.3535C11.2173 22.5625 10.9829 21.6543 10.9243 20.5996C10.8657 19.5156 10.8657 16.2637 10.9243 15.1797C10.9829 14.125 11.2173 13.1875 11.979 12.4258C12.77 11.6641 13.6782 11.4297 14.7329 11.3711C15.8169 11.3125 19.0688 11.3125 20.1528 11.3711C21.2075 11.4297 22.145 11.6641 22.9067 12.4258C23.6685 13.1875 23.9028 14.125 23.9614 15.1797ZM22.5552 21.7422C22.9067 20.8926 22.8188 18.8418 22.8188 17.875C22.8188 16.9375 22.9067 14.8867 22.5552 14.0078C22.3208 13.4512 21.8813 12.9824 21.3247 12.7773C20.4458 12.4258 18.395 12.5137 17.4575 12.5137C16.4907 12.5137 14.4399 12.4258 13.5903 12.7773C13.0044 13.0117 12.5649 13.4512 12.3306 14.0078C11.979 14.8867 12.0669 16.9375 12.0669 17.875C12.0669 18.8418 11.979 20.8926 12.3306 21.7422C12.5649 22.3281 13.0044 22.7676 13.5903 23.002C14.4399 23.3535 16.4907 23.2656 17.4575 23.2656C18.395 23.2656 20.4458 23.3535 21.3247 23.002C21.8813 22.7676 22.3501 22.3281 22.5552 21.7422Z" fill="#006531"/>
</svg>
