<svg width="15" height="20" viewBox="0 0 15 20" fill="none" xmlns="http://www.w3.org/2000/svg">
<path d="M14.707 9.4707C14.8242 9.38281 15 9.4707 15 9.61719V15.5938C15 16.3848 14.3555 17 13.5938 17H1.40625C0.615234 17 0 16.3848 0 15.5938V9.61719C0 9.4707 0.146484 9.38281 0.263672 9.4707C0.9375 9.99805 1.78711 10.6426 4.77539 12.8105C5.39062 13.25 6.44531 14.2168 7.5 14.2168C8.52539 14.2168 9.60938 13.25 10.1953 12.8105C13.1836 10.6426 14.0332 9.99805 14.707 9.4707ZM7.5 13.25C6.79688 13.2793 5.83008 12.4004 5.33203 12.0488C1.43555 9.23633 1.14258 8.97266 0.263672 8.26953C0.0878906 8.15234 0 7.94727 0 7.71289V7.15625C0 6.39453 0.615234 5.75 1.40625 5.75H13.5938C14.3555 5.75 15 6.39453 15 7.15625V7.71289C15 7.94727 14.8828 8.15234 14.707 8.26953C13.8281 8.97266 13.5352 9.23633 9.63867 12.0488C9.14062 12.4004 8.17383 13.2793 7.5 13.25Z" fill="white"/>
</svg>
