<svg width="15" height="20" viewBox="0 0 15 20" fill="none" xmlns="http://www.w3.org/2000/svg">
<path d="M14.5605 14.4805C14.7949 14.5977 14.9707 14.8613 14.9707 15.1543C14.9707 15.1836 14.9707 15.2422 14.9707 15.3008L14.2676 18.3477C14.1797 18.6699 13.916 18.875 13.5938 18.875C6.06445 18.875 0 12.8105 0 5.28125C0 4.95898 0.205078 4.69531 0.527344 4.60742L3.57422 3.9043C3.63281 3.9043 3.69141 3.875 3.7207 3.875C4.01367 3.875 4.27734 4.05078 4.39453 4.31445L5.80078 7.5957C5.83008 7.68359 5.85938 7.77148 5.85938 7.85938C5.85938 8.09375 5.74219 8.29883 5.5957 8.41602L3.80859 9.88086C4.89258 12.166 6.70898 13.9824 8.99414 15.0664L10.459 13.2793C10.5762 13.1328 10.7812 13.0156 10.9863 13.0156C11.1035 13.0156 11.1914 13.0449 11.2793 13.0742L14.5605 14.4805Z" fill="white"/>
</svg>
