<svg width="15" height="20" viewBox="0 0 15 20" fill="none" xmlns="http://www.w3.org/2000/svg">
<path d="M7.5 4.10938C11.5137 4.10938 14.7656 7.36133 14.7656 11.375C14.7656 15.3887 11.5137 18.6406 7.5 18.6406C3.48633 18.6406 0.234375 15.3887 0.234375 11.375C0.234375 7.36133 3.48633 4.10938 7.5 4.10938ZM7.5 17.2344C10.7227 17.2344 13.3594 14.627 13.3594 11.375C13.3594 8.15234 10.7227 5.51562 7.5 5.51562C4.24805 5.51562 1.64062 8.15234 1.64062 11.375C1.64062 14.627 4.24805 17.2344 7.5 17.2344ZM9.28711 14.1875L6.79688 12.3711C6.70898 12.3125 6.67969 12.1953 6.67969 12.1074V7.27344C6.67969 7.09766 6.82617 6.92188 7.03125 6.92188H7.96875C8.14453 6.92188 8.32031 7.09766 8.32031 7.27344V11.4336L10.2539 12.8691C10.4297 12.9863 10.459 13.1914 10.3418 13.3672L9.78516 14.0996C9.66797 14.2754 9.46289 14.3047 9.28711 14.1875Z" fill="white"/>
</svg>
