<svg width="36" height="36" viewBox="0 0 36 36" fill="none" xmlns="http://www.w3.org/2000/svg">
<rect x="0.390137" y="0.5" width="35" height="35" rx="17.5" fill="white"/>
<path d="M23.8374 14.8281C23.8374 14.9746 23.8374 15.0918 23.8374 15.2383C23.8374 19.3105 20.7612 23.9688 15.1069 23.9688C13.3491 23.9688 11.7378 23.4707 10.3901 22.5918C10.6245 22.6211 10.8589 22.6504 11.1226 22.6504C12.5581 22.6504 13.8765 22.1523 14.9312 21.332C13.5835 21.3027 12.4409 20.4238 12.0601 19.1934C12.2651 19.2227 12.4409 19.252 12.646 19.252C12.9097 19.252 13.2026 19.1934 13.437 19.1348C12.0308 18.8418 10.9761 17.6113 10.9761 16.1172V16.0879C11.3862 16.3223 11.8843 16.4395 12.3823 16.4688C11.5327 15.9121 11.0054 14.9746 11.0054 13.9199C11.0054 13.334 11.1519 12.8066 11.4155 12.3672C12.939 14.2129 15.2241 15.4434 17.7729 15.5898C17.7144 15.3555 17.6851 15.1211 17.6851 14.8867C17.6851 13.1875 19.062 11.8105 20.7612 11.8105C21.6401 11.8105 22.4312 12.1621 23.0171 12.7773C23.6909 12.6309 24.3647 12.3672 24.9507 12.0156C24.7163 12.748 24.2476 13.334 23.603 13.7148C24.2183 13.6562 24.8335 13.4805 25.3608 13.2461C24.9507 13.8613 24.4233 14.3887 23.8374 14.8281Z" fill="#006531"/>
</svg>
