<svg width="36" height="36" viewBox="0 0 36 36" fill="none" xmlns="http://www.w3.org/2000/svg">
<rect x="0.390137" y="0.5" width="35" height="35" rx="17.5" fill="white"/>
<path d="M25.4741 14.0371C25.8257 15.2676 25.8257 17.9043 25.8257 17.9043C25.8257 17.9043 25.8257 20.5117 25.4741 21.7715C25.2983 22.4746 24.7417 23.002 24.0679 23.1777C22.8081 23.5 17.8276 23.5 17.8276 23.5C17.8276 23.5 12.8179 23.5 11.5581 23.1777C10.8843 23.002 10.3276 22.4746 10.1519 21.7715C9.80029 20.5117 9.80029 17.9043 9.80029 17.9043C9.80029 17.9043 9.80029 15.2676 10.1519 14.0371C10.3276 13.334 10.8843 12.7773 11.5581 12.6016C12.8179 12.25 17.8276 12.25 17.8276 12.25C17.8276 12.25 22.8081 12.25 24.0679 12.6016C24.7417 12.7773 25.2983 13.334 25.4741 14.0371ZM16.187 20.2773L20.3472 17.9043L16.187 15.5312V20.2773Z" fill="#006531"/>
<a href="https://www.figma.com/design/EasGxVGIHEqVppxbOemnTj/Benue-State-Government?node-id=2-30378">
<rect fill="black" fill-opacity="0" y="-1.125" width="16.875" height="17.25"/>
</a>
</svg>
