<svg width="552" height="33" viewBox="0 0 552 33" fill="none" xmlns="http://www.w3.org/2000/svg">
<rect y="0.5" width="32" height="32" rx="16" fill="#006531"/>
<path d="M21.3327 13.1667L14.4708 20.0286C14.2104 20.289 13.7883 20.289 13.5279 20.0286L10.666 17.1667" stroke="white" stroke-width="2" stroke-linecap="round"/>
<line x1="37" y1="15.5" x2="125" y2="15.5" stroke="#01903C" stroke-width="2" stroke-linecap="round" stroke-dasharray="0.1 8"/>
<rect x="130" y="0.5" width="32" height="32" rx="16" fill="#006531"/>
<path d="M151.333 13.1667L144.471 20.0286C144.21 20.289 143.788 20.289 143.528 20.0286L140.666 17.1667" stroke="white" stroke-width="2" stroke-linecap="round"/>
<line x1="167" y1="15.5" x2="255" y2="15.5" stroke="#01903C" stroke-width="2" stroke-linecap="round" stroke-dasharray="0.1 8"/>
<rect x="260" y="0.5" width="32" height="32" rx="16" fill="#006531"/>
<path d="M281.333 13.1667L274.471 20.0286C274.21 20.289 273.788 20.289 273.528 20.0286L270.666 17.1667" stroke="white" stroke-width="2" stroke-linecap="round"/>
<line x1="297" y1="15.5" x2="385" y2="15.5" stroke="#01903C" stroke-width="2" stroke-linecap="round" stroke-dasharray="0.1 8"/>
<rect x="390" y="0.5" width="32" height="32" rx="16" fill="#006531"/>
<path d="M411.333 13.1667L404.471 20.0286C404.21 20.289 403.788 20.289 403.528 20.0286L400.666 17.1667" stroke="white" stroke-width="2" stroke-linecap="round"/>
<line x1="427" y1="15.5" x2="515" y2="15.5" stroke="#01903C" stroke-width="2" stroke-linecap="round" stroke-dasharray="0.1 8"/>
<rect x="520" y="0.5" width="32" height="32" rx="16" fill="#006531"/>
<path d="M541.333 13.1667L534.471 20.0286C534.21 20.289 533.788 20.289 533.528 20.0286L530.666 17.1667" stroke="white" stroke-width="2" stroke-linecap="round"/>
</svg>
