<svg width="552" height="33" viewBox="0 0 552 33" fill="none" xmlns="http://www.w3.org/2000/svg">
<rect y="0.5" width="32" height="32" rx="16" fill="#006531"/>
<path d="M21.3327 13.1667L14.4708 20.0286C14.2104 20.289 13.7883 20.289 13.5279 20.0286L10.666 17.1667" stroke="white" stroke-width="2" stroke-linecap="round"/>
<line x1="37" y1="15.5" x2="125" y2="15.5" stroke="#01903C" stroke-width="2" stroke-linecap="round" stroke-dasharray="0.1 8"/>
<rect x="130.5" y="1" width="31" height="31" rx="15.5" fill="white"/>
<rect x="130.5" y="1" width="31" height="31" rx="15.5" stroke="#01903C"/>
<path d="M142.213 22.5V21.2273L146.151 17.1477C146.571 16.7045 146.918 16.3163 147.19 15.983C147.467 15.6458 147.673 15.3258 147.81 15.0227C147.946 14.7197 148.014 14.3977 148.014 14.0568C148.014 13.6705 147.923 13.3371 147.741 13.0568C147.56 12.7727 147.312 12.5549 146.997 12.4034C146.683 12.2481 146.329 12.1705 145.935 12.1705C145.518 12.1705 145.154 12.2557 144.844 12.4261C144.533 12.5966 144.295 12.8371 144.128 13.1477C143.961 13.4583 143.878 13.822 143.878 14.2386L142.202 14.2386C142.202 13.5303 142.365 12.911 142.69 12.3807C143.016 11.8504 143.463 11.4394 144.031 11.1477C144.599 10.8523 145.245 10.7045 145.969 10.7045C146.7 10.7045 147.344 10.8504 147.901 11.142C148.461 11.4299 148.899 11.8239 149.213 12.3239C149.527 12.8201 149.685 13.3807 149.685 14.0057C149.685 14.4375 149.603 14.8598 149.44 15.2727C149.281 15.6856 149.003 16.1458 148.605 16.6534C148.207 17.1572 147.654 17.7689 146.946 18.4886L144.634 20.9091V20.9943L149.872 20.9943V22.5L142.213 22.5Z" fill="#006531"/>
<line x1="167" y1="15.5" x2="255" y2="15.5" stroke="#01903C" stroke-width="2" stroke-linecap="round" stroke-dasharray="0.1 8"/>
<rect x="260.5" y="1" width="31" height="31" rx="15.5" fill="white"/>
<rect x="260.5" y="1" width="31" height="31" rx="15.5" stroke="#DAE0E6"/>
<path d="M276.014 22.6591C275.234 22.6591 274.537 22.5246 273.923 22.2557C273.313 21.9867 272.83 21.6136 272.474 21.1364C272.122 20.6553 271.933 20.0985 271.906 19.4659L273.69 19.4659C273.713 19.8106 273.829 20.1098 274.037 20.3636C274.249 20.6136 274.526 20.8068 274.866 20.9432C275.207 21.0795 275.586 21.1477 276.003 21.1477C276.461 21.1477 276.866 21.0682 277.219 20.9091C277.575 20.75 277.853 20.5284 278.054 20.2443C278.255 19.9564 278.355 19.625 278.355 19.25C278.355 18.8598 278.255 18.517 278.054 18.2216C277.857 17.9223 277.567 17.6875 277.185 17.517C276.806 17.3466 276.348 17.2614 275.81 17.2614H274.827V15.8295L275.81 15.8295C276.241 15.8295 276.62 15.7519 276.946 15.5966C277.276 15.4413 277.533 15.2254 277.719 14.9489C277.904 14.6686 277.997 14.3409 277.997 13.9659C277.997 13.6061 277.916 13.2936 277.753 13.0284C277.594 12.7595 277.366 12.5492 277.071 12.3977C276.779 12.2462 276.435 12.1705 276.037 12.1705C275.658 12.1705 275.304 12.2405 274.974 12.3807C274.649 12.517 274.384 12.714 274.179 12.9716C273.974 13.2254 273.865 13.5303 273.849 13.8864L272.151 13.8864C272.17 13.2576 272.355 12.7045 272.707 12.2273C273.063 11.75 273.533 11.3769 274.116 11.108C274.7 10.839 275.348 10.7045 276.06 10.7045C276.806 10.7045 277.45 10.8504 277.991 11.142C278.537 11.4299 278.957 11.8144 279.253 12.2955C279.552 12.7765 279.7 13.303 279.696 13.875C279.7 14.5265 279.518 15.0795 279.151 15.5341C278.787 15.9886 278.302 16.2936 277.696 16.4489V16.5398C278.469 16.6572 279.067 16.964 279.491 17.4602C279.92 17.9564 280.132 18.572 280.128 19.3068C280.132 19.947 279.954 20.5208 279.594 21.0284C279.238 21.536 278.751 21.9356 278.134 22.2273C277.516 22.5152 276.81 22.6591 276.014 22.6591Z" fill="#5F6D7E"/>
<line x1="297" y1="15.5" x2="385" y2="15.5" stroke="#DAE0E6" stroke-width="2" stroke-linecap="round" stroke-dasharray="0.1 8"/>
<rect x="390.5" y="1" width="31" height="31" rx="15.5" fill="white"/>
<rect x="390.5" y="1" width="31" height="31" rx="15.5" stroke="#DAE0E6"/>
<path d="M401.641 20.2273V18.8068L406.669 10.8636L407.788 10.8636V12.9545L407.078 12.9545L403.482 18.6477V18.7386L410.374 18.7386V20.2273L401.641 20.2273ZM407.158 22.5L407.158 19.7955L407.169 19.1477V10.8636L408.834 10.8636L408.834 22.5L407.158 22.5Z" fill="#5F6D7E"/>
<line x1="427" y1="15.5" x2="515" y2="15.5" stroke="#DAE0E6" stroke-width="2" stroke-linecap="round" stroke-dasharray="0.1 8"/>
<rect x="520.5" y="1" width="31" height="31" rx="15.5" fill="white"/>
<rect x="520.5" y="1" width="31" height="31" rx="15.5" stroke="#DAE0E6"/>
<path d="M535.999 22.6591C535.287 22.6591 534.647 22.5227 534.079 22.25C533.514 21.9735 533.064 21.5947 532.727 21.1136C532.389 20.6326 532.21 20.0833 532.187 19.4659L533.891 19.4659C533.933 19.9659 534.155 20.3769 534.556 20.6989C534.958 21.0208 535.439 21.1818 535.999 21.1818C536.446 21.1818 536.842 21.0795 537.187 20.875C537.535 20.6667 537.808 20.3807 538.005 20.017C538.206 19.6534 538.306 19.2386 538.306 18.7727C538.306 18.2992 538.204 17.8769 537.999 17.5057C537.795 17.1345 537.513 16.8428 537.153 16.6307C536.797 16.4186 536.388 16.3106 535.925 16.3068C535.573 16.3068 535.219 16.3674 534.863 16.4886C534.507 16.6098 534.219 16.7689 533.999 16.9659L532.391 16.7273L533.045 10.8636L539.442 10.8636V12.3693L534.505 12.3693L534.136 15.625H534.204C534.431 15.4053 534.732 15.2216 535.107 15.0739C535.486 14.9261 535.891 14.8523 536.323 14.8523C537.031 14.8523 537.662 15.0208 538.215 15.358C538.772 15.6951 539.21 16.1553 539.528 16.7386C539.85 17.3182 540.009 17.9848 540.005 18.7386C540.009 19.4924 539.838 20.1648 539.494 20.7557C539.153 21.3466 538.679 21.8125 538.073 22.1534C537.471 22.4905 536.78 22.6591 535.999 22.6591Z" fill="#5F6D7E"/>
</svg>
