<svg width="552" height="33" viewBox="0 0 552 33" fill="none" xmlns="http://www.w3.org/2000/svg">
<rect y="0.5" width="32" height="32" rx="16" fill="#006531"/>
<path d="M21.3327 13.1667L14.4708 20.0286C14.2104 20.289 13.7883 20.289 13.5279 20.0286L10.666 17.1667" stroke="white" stroke-width="2" stroke-linecap="round"/>
<line x1="37" y1="15.5" x2="125" y2="15.5" stroke="#01903C" stroke-width="2" stroke-linecap="round" stroke-dasharray="0.1 8"/>
<rect x="130" y="0.5" width="32" height="32" rx="16" fill="#006531"/>
<path d="M151.333 13.1667L144.471 20.0286C144.21 20.289 143.788 20.289 143.528 20.0286L140.666 17.1667" stroke="white" stroke-width="2" stroke-linecap="round"/>
<line x1="167" y1="15.5" x2="255" y2="15.5" stroke="#01903C" stroke-width="2" stroke-linecap="round" stroke-dasharray="0.1 8"/>
<rect x="260" y="0.5" width="32" height="32" rx="16" fill="#006531"/>
<path d="M281.333 13.1667L274.471 20.0286C274.21 20.289 273.788 20.289 273.528 20.0286L270.666 17.1667" stroke="white" stroke-width="2" stroke-linecap="round"/>
<line x1="297" y1="15.5" x2="385" y2="15.5" stroke="#01903C" stroke-width="2" stroke-linecap="round" stroke-dasharray="0.1 8"/>
<rect x="390.5" y="1" width="31" height="31" rx="15.5" fill="white"/>
<rect x="390.5" y="1" width="31" height="31" rx="15.5" stroke="#01903C"/>
<path d="M401.641 20.2273V18.8068L406.669 10.8636L407.788 10.8636V12.9545L407.078 12.9545L403.482 18.6477V18.7386L410.374 18.7386V20.2273L401.641 20.2273ZM407.158 22.5L407.158 19.7955L407.169 19.1477V10.8636L408.834 10.8636L408.834 22.5L407.158 22.5Z" fill="#006531"/>
<line x1="427" y1="15.5" x2="515" y2="15.5" stroke="#01903C" stroke-width="2" stroke-linecap="round" stroke-dasharray="0.1 8"/>
<rect x="520.5" y="1" width="31" height="31" rx="15.5" fill="white"/>
<rect x="520.5" y="1" width="31" height="31" rx="15.5" stroke="#DAE0E6"/>
<path d="M535.999 22.6591C535.287 22.6591 534.647 22.5227 534.079 22.25C533.514 21.9735 533.064 21.5947 532.727 21.1136C532.389 20.6326 532.21 20.0833 532.187 19.4659L533.891 19.4659C533.933 19.9659 534.155 20.3769 534.556 20.6989C534.958 21.0208 535.439 21.1818 535.999 21.1818C536.446 21.1818 536.842 21.0795 537.187 20.875C537.535 20.6667 537.808 20.3807 538.005 20.017C538.206 19.6534 538.306 19.2386 538.306 18.7727C538.306 18.2992 538.204 17.8769 537.999 17.5057C537.795 17.1345 537.513 16.8428 537.153 16.6307C536.797 16.4186 536.388 16.3106 535.925 16.3068C535.573 16.3068 535.219 16.3674 534.863 16.4886C534.507 16.6098 534.219 16.7689 533.999 16.9659L532.391 16.7273L533.045 10.8636L539.442 10.8636V12.3693L534.505 12.3693L534.136 15.625H534.204C534.431 15.4053 534.732 15.2216 535.107 15.0739C535.486 14.9261 535.891 14.8523 536.323 14.8523C537.031 14.8523 537.662 15.0208 538.215 15.358C538.772 15.6951 539.21 16.1553 539.528 16.7386C539.85 17.3182 540.009 17.9848 540.005 18.7386C540.009 19.4924 539.838 20.1648 539.494 20.7557C539.153 21.3466 538.679 21.8125 538.073 22.1534C537.471 22.4905 536.78 22.6591 535.999 22.6591Z" fill="#5F6D7E"/>
</svg>
